<svg xmlns="http://www.w3.org/2000/svg" viewBox="0 0 133.54 69.78"><defs><style>.cls-1{fill:#104076;}</style></defs><title>Ресурс 3</title><g id="Слой_2" data-name="Слой 2"><g id="Слой_1-2" data-name="Слой 1"><path class="cls-1" d="M123,45.61a1.42,1.42,0,0,0-1.12.56c-9.07,11.77-31.89,20.11-58.61,20.11-26.29,0-48.81-8.08-58.16-19.54a.25.25,0,0,1,.18-.41,1.12,1.12,0,0,1,.82.34c8.89,9.52,28.2,16.12,50.6,16.12,21.24,0,39.69-5.93,49.13-14.65a1.48,1.48,0,0,0-1.07-2.53H102a1.66,1.66,0,0,0-1.19.53C92.43,55,74.43,61.05,53.59,61.05c-28.9,0-52.05-11.71-52.05-26.17S24.69,8.72,53.59,8.72c21,0,39.08,6.18,47.42,15.09a1.64,1.64,0,0,0,1.19.53h2.67A1.5,1.5,0,0,0,106,21.8C96.58,13,78,7,56.66,7,34.21,7,14.87,13.6,6,23.15a1.1,1.1,0,0,1-.81.34A.25.25,0,0,1,5,23.08C14.35,11.59,36.89,3.49,63.22,3.49c26.86,0,49.78,8.43,58.75,20.3a1.4,1.4,0,0,0,1.12.57h7.64a2.66,2.66,0,0,0,2.11-4.41C121.65,8.15,97.62,0,69.78,0,31.25,0,0,15.62,0,34.89S31.25,69.78,69.78,69.78c27.72,0,51.65-8.08,62.91-19.79a2.63,2.63,0,0,0-2.08-4.38H123Z"/><path class="cls-1" d="M27.26,37.37a2.22,2.22,0,0,1-2,2.12h-.91a2.22,2.22,0,0,1-2-2.12V32.48a2.21,2.21,0,0,1,2-2.12h.93a2.22,2.22,0,0,1,2,2.12Zm2.66-4.87a4.26,4.26,0,0,0-4.26-4.26H23.9a4.21,4.21,0,0,0-4.26,4.26v.86a.57.57,0,0,1-.57.55H17.17a.57.57,0,0,1-.57-.52V31.21a3.14,3.14,0,0,0-.78-2.34,2.4,2.4,0,0,0-1.6-.49h-.43V41.45H16.6V36.59a.57.57,0,0,1,.54-.55h1.95a.56.56,0,0,1,.55.54v.77a4.37,4.37,0,0,0,4.26,4.26h1.77a4.37,4.37,0,0,0,4.26-4.26Z"/><path class="cls-1" d="M42.5,38.78c0,1.77.81,2.78,2.38,2.78h.44v-13H42.5v4.71a.57.57,0,0,1-.51.54H36.82a.57.57,0,0,1-.54-.5V31.18c0-1.77-.81-2.81-2.38-2.81h-.43V41.45h2.81V36.73a.57.57,0,0,1,.51-.54H42a.57.57,0,0,1,.54.53v1.54h0Z"/><path class="cls-1" d="M77.05,28.51a2.26,2.26,0,0,0-2.13,2.12H79a.56.56,0,0,1,.55.53V41.45h2.81V31.18a.56.56,0,0,1,.53-.54h2.06a2.26,2.26,0,0,0,2.13-2.12Z"/><path class="cls-1" d="M97.53,33.49a1.56,1.56,0,0,1-1.72,1.65h-3a.56.56,0,0,1-.55-.55V31.19a.55.55,0,0,1,.54-.56h3c1.22,0,1.72.48,1.72,1.64Zm2.66-.88v-.24c0-.05,0-.1,0-.15a3.67,3.67,0,0,0-3.93-3.71H89.42V41.45h2.82V37.8a.57.57,0,0,1,.53-.55h3.49a3.92,3.92,0,0,0,3.93-3.76c0-.1,0-.77,0-.88"/><path class="cls-1" d="M63.72,37.35a4.1,4.1,0,0,0,4.09,4.1h5.53a2.25,2.25,0,0,0-2.13-2.12l-3.31,0a1.51,1.51,0,0,1-1.37-1.62V32.27a1.56,1.56,0,0,1,1.71-1.64H70.9A2.26,2.26,0,0,0,73,28.51H67.81a4.1,4.1,0,0,0-4.09,4.09Z"/><path class="cls-1" d="M130.45,28.49a4.56,4.56,0,0,0-1,.05c-.23.07-.31.24-.65,1.09,0,0-2.18,6.16-2.51,6.76a.49.49,0,0,1-.41.29.49.49,0,0,1-.42-.29c-.33-.6-2.51-6.76-2.51-6.76-.34-.85-.42-1-.65-1.09a4.49,4.49,0,0,0-1-.05h-2.7V41.56H119c1.57,0,2.36-.9,2.36-2.68v-5c0-.38.24-.47.41-.47a.54.54,0,0,1,.51.38l2.31,5.9h2.52l2.31-5.9a.54.54,0,0,1,.51-.38c.17,0,.41.08.41.47v5c0,1.78.8,2.68,2.37,2.68h.43V28.49Z"/><path class="cls-1" d="M105.93,41.43h-2.88V28.36h.43c1.57,0,2.34.89,2.35,2.64v5.32c0,.32.49.46.78.1L112,28.51h2.88v13h-.44c-1.57,0-2.34-.89-2.34-2.64V33.7c0-.32-.49-.46-.78-.1l-5.39,7.83"/><path class="cls-1" d="M51.56,41.43H48.68V28.36h.43c1.57,0,2.34.89,2.34,2.64v5.32c0,.32.49.46.78.1l5.39-7.92h2.88v13h-.43c-1.57,0-2.34-.89-2.35-2.64V33.7c0-.32-.49-.46-.78-.1l-5.39,7.83"/></g></g></svg>